<?xml version="1.0" encoding="UTF-8"?>
<svg id="Calque_1" xmlns="http://www.w3.org/2000/svg" width="119.08mm" height="142.1mm" version="1.1" viewBox="0 0 337.55 402.79">
  <!-- Generator: Adobe Illustrator 30.2.1, SVG Export Plug-In . SVG Version: 2.1.1 Build 1)  -->
  <defs>
    <style>
      .st0 {
        fill: #fff;
      }

      .st1 {
        fill: #060707;
      }
    </style>
  </defs>
  <rect class="st1" x="196.06" y="274.7" width="140.5" height="127.09"/>
  <path class="st1" d="M337.55,402.79h-142.5v-129.09h142.5v129.09ZM197.06,400.79h138.5v-125.09h-138.5v125.09Z"/>
  <path class="st1" d="M337.55,402.79h-142.5v-129.09h142.5v129.09ZM197.06,400.79h138.5v-125.09h-138.5v125.09Z"/>
  <polygon class="st1" points="196.68 275.48 195.43 273.92 266.31 217.02 337.18 273.92 335.93 275.48 266.31 219.58 196.68 275.48"/>
  <polyline class="st1" points="196.06 274.7 266.31 218.3 336.55 274.7"/>
  <polygon class="st1" points="196.68 275.48 195.43 273.92 266.31 217.02 337.18 273.92 335.93 275.48 266.31 219.58 196.68 275.48"/>
  <rect class="st1" x="73.52" y="273.7" width="130.76" height="2"/>
  <rect class="st1" x="88.73" y="260.69" width="130.76" height="2"/>
  <rect class="st1" x="112.04" y="261.69" width="2" height="11.71"/>
  <rect class="st1" x="141.23" y="261.69" width="2" height="13.01"/>
  <rect class="st1" x="162.52" y="261.69" width="2" height="13.01"/>
  <rect class="st1" x="188.06" y="261.69" width="2" height="13.01"/>
  <rect class="st1" x="203.27" y="261.69" width="2" height="13.01"/>
  <path class="st1" d="M228,85.31c0,15.25-12.12,27.59-27.06,27.59s-27.06-12.36-27.06-27.59,12.12-27.59,27.06-27.59,27.06,12.36,27.06,27.59"/>
  <path class="st1" d="M200.94,113.89c-15.47,0-28.06-12.82-28.06-28.59s12.59-28.58,28.06-28.58,28.06,12.82,28.06,28.58-12.59,28.59-28.06,28.59ZM200.94,58.72c-14.37,0-26.06,11.93-26.06,26.58s11.69,26.59,26.06,26.59,26.06-11.93,26.06-26.59-11.69-26.58-26.06-26.58Z"/>
  <path class="st1" d="M228,85.31c0,15.25-12.12,27.59-27.06,27.59s-27.06-12.36-27.06-27.59,12.12-27.59,27.06-27.59,27.06,12.36,27.06,27.59Z"/>
  <path class="st1" d="M200.94,113.89c-15.47,0-28.06-12.82-28.06-28.59s12.59-28.58,28.06-28.58,28.06,12.82,28.06,28.58-12.59,28.59-28.06,28.59ZM200.94,58.72c-14.37,0-26.06,11.93-26.06,26.58s11.69,26.59,26.06,26.59,26.06-11.93,26.06-26.59-11.69-26.58-26.06-26.58Z"/>
  <rect class="st1" x="182.9" y="46.33" width="2" height="19.68" transform="translate(-2.12 104.86) rotate(-31.65)"/>
  <rect class="st1" x="168.3" y="67.95" width="2" height="19.23" transform="translate(60.41 228.63) rotate(-78.83)"/>
  <rect class="st1" x="161.78" y="101.36" width="23.84" height="2" transform="translate(-27.89 105.36) rotate(-31.36)"/>
  <rect class="st1" x="199.46" y="52.69" width="22.39" height="2" transform="translate(106.97 244.76) rotate(-75.81)"/>
  <rect class="st1" x="224.13" y="67.84" width="18.52" height="2" transform="translate(-5.31 116.08) rotate(-27.63)"/>
  <rect class="st1" x="234.49" y="83.98" width="2" height="21.33" transform="translate(83.48 297.88) rotate(-75.1)"/>
  <path class="st1" d="M246.84,87.8c0,24.83-20,44.96-44.7,44.96s-44.7-20.13-44.7-44.96,20.02-44.94,44.7-44.94,44.7,20.11,44.7,44.94Z"/>
  <path class="st1" d="M202.14,133.77c-25.2,0-45.7-20.62-45.7-45.96s20.5-45.94,45.7-45.94,45.7,20.61,45.7,45.94-20.5,45.96-45.7,45.96ZM202.14,43.86c-24.1,0-43.7,19.71-43.7,43.94s19.6,43.96,43.7,43.96,43.7-19.72,43.7-43.96-19.6-43.94-43.7-43.94Z"/>
  <rect class="st1" x="-68.97" y="256.53" width="317.51" height="2" transform="translate(-173.81 187.52) rotate(-55.91)"/>
  <rect class="st1" x="65.58" y="175.2" width="119.25" height="2" transform="translate(-90.72 186.15) rotate(-57.24)"/>
  <rect class="st1" x="97.15" y="223.57" width="2" height="12.4" transform="translate(-147.7 185.2) rotate(-56.59)"/>
  <rect class="st1" x="109.23" y="206.06" width="2" height="12.38" transform="translate(-127.61 187.17) rotate(-56.53)"/>
  <rect class="st1" x="124.22" y="180.35" width="2" height="12.38" transform="translate(-99.45 188.16) rotate(-56.54)"/>
  <rect class="st1" x="137.89" y="162.22" width="2" height="12.4" transform="translate(-78.17 191.65) rotate(-56.6)"/>
  <rect class="st1" x="150.66" y="141.19" width="2" height="12.38" transform="translate(-54.92 192.64) rotate(-56.54)"/>
  <rect class="st1" x="161.87" y="122.51" width="2" height="16.18" transform="translate(-39.57 181.58) rotate(-52.86)"/>
  <path class="st1" d="M172.51,121.41l12.69-13.65,36.73-8.19,6.08,4.03,43.2-1.23,3.63,1.53s-10.03,25.78-9.42,28.83l-64.47,1.53s-27.97-8.98-28.42-12.87"/>
  <path class="st1" d="M200.81,135.25l-.16-.05c-8.59-2.76-28.63-9.62-29.11-13.7l.95-.11-.71-.66,12.9-13.88,37.45-8.35,6.17,4.09,43.1-1.22,4.73,1.99-.35.91c-4.87,12.52-9.71,26.53-9.37,28.28l.23,1.16-1.18.03-64.64,1.53ZM173.7,121.6c1.71,2.31,15.13,7.7,27.4,11.65l63.37-1.5c.66-5.21,7.03-21.96,9.1-27.31l-2.54-1.07-43.3,1.23-5.99-3.97-36.01,8.03-12.02,12.94Z"/>
  <path class="st1" d="M177.51,30.39l99.13-1.83s15.87,4.63,11.1,21.38c0,0-14.14,49.71-16.57,52.44-2.43,2.73,3.65,1.53,3.65,1.53,0,0,16.73-29.44,27.35-81.85l8.22-5.58v-4.65l-18.84-.93c.91-1.85-5.47-9.9-5.47-9.9h-102.18c-5.47,0-6.4,27.56-6.4,27.56"/>
  <path class="st1" d="M272.42,105.19c-1.17,0-2.19-.25-2.62-.99-.41-.71-.2-1.55.63-2.48,1.69-1.97,10.93-32.97,16.36-52.05,4.25-14.94-8.68-19.6-10.28-20.11l-98.97,1.83-.04-2,99.29-1.83.15.04c.17.05,16.76,5.11,11.78,22.62-2.37,8.34-14.33,50.07-16.79,52.83l-.09.11c.54.05,1.46,0,2.36-.15,2.02-3.73,17.22-32.79,27.02-81.15l.08-.4,8.12-5.51v-3.17l-19.41-.95.67-1.36c.16-.84-2.17-4.75-5.06-8.46h-101.69c-2.69,0-4.97,13.75-5.4,26.6l-2-.07C176.74,21.84,177.94,0,183.91,0h102.66l.3.38c2.09,2.64,5.24,6.96,5.69,9.57l18.84.93v6.13l-8.32,5.65c-10.54,51.73-27.22,81.45-27.38,81.75l-.23.4-.45.09c-.83.16-1.76.29-2.61.29ZM271.59,103.51h0Z"/>
  <rect class="st1" x="195.06" y="13.36" width="2" height="48.04"/>
  <rect class="st1" x="222.66" y="22.04" width="2" height="48.04"/>
  <rect class="st1" x="236.42" y="18.82" width="2" height="96.57"/>
  <rect class="st1" x="252.24" y="18.82" width="2" height="96.57"/>
  <rect class="st1" x="269.56" y="16.25" width="2" height="90.72"/>
  <path class="st1" d="M207.93,159.34c-11.87,0-21.52-10.08-21.52-22.48s9.65-22.48,21.52-22.48,21.52,10.08,21.52,22.48-9.65,22.48-21.52,22.48ZM207.93,116.39c-10.76,0-19.52,9.19-19.52,20.48s8.76,20.48,19.52,20.48,19.52-9.19,19.52-20.48-8.76-20.48-19.52-20.48Z"/>
  <path class="st1" d="M217.19,136.08c0,5.32-4.22,9.6-9.42,9.6s-9.44-4.28-9.44-9.6,4.25-9.6,9.44-9.6,9.42,4.3,9.42,9.6"/>
  <path class="st1" d="M207.77,146.68c-5.76,0-10.44-4.76-10.44-10.6s4.68-10.6,10.44-10.6,10.42,4.76,10.42,10.6-4.67,10.6-10.42,10.6ZM207.77,127.47c-4.66,0-8.44,3.86-8.44,8.6s3.79,8.6,8.44,8.6,8.42-3.86,8.42-8.6-3.78-8.6-8.42-8.6Z"/>
  <rect class="st1" x="209.66" y="143.93" width="2" height="14.45" transform="translate(-14.74 23.02) rotate(-6.04)"/>
  <rect class="st1" x="218.29" y="135.4" width="2" height="14.86" transform="translate(-17.39 254.49) rotate(-58.33)"/>
  <rect class="st1" x="212.92" y="132.32" width="20.95" height="2" transform="translate(-29.57 72.59) rotate(-17.33)"/>
  <rect class="st1" x="187.54" y="137.27" width="17.05" height="2" transform="translate(-20.03 34.05) rotate(-9.44)"/>
  <rect class="st1" x="191.56" y="144.69" width="21.19" height="2" transform="translate(-20.16 258.25) rotate(-62.63)"/>
  <rect class="st1" x="260.75" y="130.2" width="2" height="102.98"/>
  <rect class="st1" x="260.75" y="130.2" width="2" height="102.98"/>
  <rect class="st1" x="206.77" y="115.39" width="2" height="156"/>
  <rect class="st1" x="206.77" y="115.39" width="2" height="156"/>
  <rect class="st1" x="207.93" y="187.8" width="51.69" height="2"/>
  <rect class="st1" x="199.6" y="210.57" width="64.4" height="2" transform="translate(-82.03 210.26) rotate(-42.15)"/>
  <rect class="st1" x="218.86" y="224.63" width="2" height="32.87" transform="translate(-106.35 234.83) rotate(-46.54)"/>
  <rect class="st1" x="237.31" y="127.14" width="2" height="65.68" transform="translate(-39.26 233.06) rotate(-48.62)"/>
  <rect class="st1" x="232.77" y="176.12" width="2" height="65.46" transform="translate(-65.81 301.14) rotate(-58.9)"/>
  <rect class="st1" x="241.39" y="112.12" width="2" height="54.35" transform="translate(-26.76 214.9) rotate(-45.58)"/>
  <rect class="st1" x="242.95" y="130.2" width="2" height="113.81"/>
  <rect class="st1" x="252.24" y="129.65" width="2" height="113.81"/>
  <rect class="st1" x="234.49" y="129.65" width="2" height="121.49"/>
  <rect class="st1" x="227" y="132.63" width="2" height="121.49"/>
  <rect class="st1" x="216.19" y="132.63" width="2" height="134.57"/>
  <rect class="st1" x="242.75" y="5.34" width="2" height="96.84" transform="translate(34.43 189.74) rotate(-45.45)"/>
  <rect class="st1" x="252.02" y="-10.08" width="2" height="96.86" transform="translate(48.2 191.78) rotate(-45.46)"/>
  <rect class="st1" x="265.19" y="-4.07" width="2" height="73.8" transform="translate(56.07 199.52) rotate(-45.46)"/>
  <rect class="st1" x="196.38" y="158.94" width="77.21" height="2" transform="translate(-45.5 206.05) rotate(-43.58)"/>
  <rect class="st1" x="210.09" y="231.38" width="56.63" height="2" transform="translate(-94.13 216.17) rotate(-41.48)"/>
  <rect class="st1" x="240.83" y="157.04" width="2" height="36.43" transform="translate(-48.58 244.95) rotate(-49.42)"/>
  <rect class="st1" x="196.06" y="52.76" width="93.66" height="2"/>
  <rect class="st1" x="221.3" y="84.31" width="62.13" height="2"/>
  <rect class="st1" x="215.53" y="96.39" width="59.29" height="2"/>
  <rect class="st1" x="215.56" y="62.74" width="87.05" height="2" transform="translate(31.44 202.89) rotate(-45.26)"/>
  <rect class="st1" x="220.89" y="78.43" width="87.05" height="2" transform="translate(21.87 211.33) rotate(-45.26)"/>
  <rect class="st1" x="206.99" y="52.75" width="87.03" height="2" transform="translate(35.94 193.77) rotate(-45.24)"/>
  <rect class="st1" x="264.8" y="82.1" width="2" height="20.02" transform="translate(6.8 201.89) rotate(-42.08)"/>
  <rect class="st1" x="212.97" y="23.59" width="2" height="33.23" transform="translate(16.74 132.4) rotate(-35.7)"/>
  <rect class="st1" x="205.35" y="35.38" width="22.94" height="2" transform="translate(69.63 199.69) rotate(-57.5)"/>
  <rect class="st1" x="252.23" y="85.87" width="2" height="23.03" transform="translate(-11.48 156.88) rotate(-33.7)"/>
  <path class="st1" d="M262.96,84.19c0,2.64-2.18,4.79-4.86,4.79s-4.86-2.13-4.86-4.79,2.18-4.77,4.86-4.77,4.86,2.13,4.86,4.77"/>
  <path class="st1" d="M258.1,89.98c-3.23,0-5.86-2.6-5.86-5.79s2.63-5.77,5.86-5.77,5.86,2.59,5.86,5.77-2.63,5.79-5.86,5.79ZM258.1,80.43c-2.13,0-3.86,1.69-3.86,3.77s1.73,3.79,3.86,3.79,3.86-1.7,3.86-3.79-1.73-3.77-3.86-3.77Z"/>
  <path class="st1" d="M262.96,84.19c0,2.64-2.18,4.79-4.86,4.79s-4.86-2.13-4.86-4.79,2.18-4.77,4.86-4.77,4.86,2.13,4.86,4.77Z"/>
  <path class="st1" d="M258.1,89.98c-3.23,0-5.86-2.6-5.86-5.79s2.63-5.77,5.86-5.77,5.86,2.59,5.86,5.77-2.63,5.79-5.86,5.79ZM258.1,80.43c-2.13,0-3.86,1.69-3.86,3.77s1.73,3.79,3.86,3.79,3.86-1.7,3.86-3.79-1.73-3.77-3.86-3.77Z"/>
  <rect class="st0" x="216.19" y="271.39" width="2" height="33.62"/>
  <rect class="st0" x="222.66" y="265.63" width="2" height="39.39"/>
  <rect class="st0" x="229.42" y="263.77" width="2" height="41.22"/>
  <rect class="st0" x="311.22" y="273.4" width="2" height="31.59"/>
  <rect class="st0" x="299.05" y="263.77" width="2" height="41.22"/>
  <rect class="st0" x="267.13" y="256.02" width="2" height="48.99"/>
  <rect class="st0" x="304.22" y="265.63" width="2" height="39.39"/>
  <rect class="st0" x="292.37" y="260.05" width="2" height="44.94"/>
  <rect class="st0" x="285.97" y="257.27" width="2" height="46.45"/>
  <rect class="st0" x="278.98" y="256.02" width="2" height="47.7"/>
  <rect class="st0" x="272.31" y="256.67" width="2" height="47.7"/>
  <rect class="st0" x="273.83" y="324.85" width="2" height="52.39"/>
  <rect class="st0" x="267.13" y="324.85" width="2" height="52.39"/>
  <rect class="st0" x="260.75" y="324.85" width="2" height="52.39"/>
  <rect class="st0" x="292.37" y="326.07" width="2" height="43.71"/>
  <rect class="st0" x="302.09" y="326.07" width="2" height="43.71"/>
  <rect class="st0" x="297.23" y="326.07" width="2" height="43.71"/>
  <rect class="st0" x="306.36" y="326.07" width="2" height="43.71"/>
  <rect class="st0" x="311.22" y="326.07" width="2" height="43.71"/>
  <rect class="st0" x="215.19" y="326.07" width="2" height="43.71"/>
  <rect class="st0" x="224.93" y="326.07" width="2" height="43.71"/>
  <rect class="st0" x="220.3" y="326.07" width="2" height="43.71"/>
  <rect class="st0" x="229.18" y="326.07" width="2" height="43.71"/>
  <rect class="st0" x="234.03" y="326.07" width="2" height="43.71"/>
  <rect class="st0" x="252.24" y="324.85" width="2" height="52.39"/>
  <rect class="st0" x="260.75" y="256.02" width="2" height="48.99"/>
  <rect class="st0" x="254.67" y="256.67" width="2" height="47.7"/>
  <rect class="st0" x="241.39" y="258.68" width="2" height="46.31"/>
  <rect class="st0" x="248.27" y="256.67" width="2" height="48.34"/>
  <rect class="st0" x="236.42" y="260.05" width="2" height="44.94"/>
  <rect class="st1" x="211.42" y="301.26" width="115.09" height="11.78"/>
  <rect class="st1" x="211.42" y="314.29" width="115.09" height="11.78"/>
  <rect class="st1" x="212.97" y="377.22" width="115.09" height="11.78"/>
  <rect class="st1" x="211.42" y="369.79" width="30.19" height="11.78"/>
  <rect class="st1" x="288.02" y="369.79" width="30.19" height="11.78"/>
  <path class="st1" d="M212.08,274.3c10.35-8.72,59.29-34.76,99.13,1.2,39.84,35.96,0,0,0,0l-4.86-17.36-42.86-13.26-44.99,17.7-6.4,11.71h-.02Z"/>
</svg>